<svg xmlns="http://www.w3.org/2000/svg" xmlns:xlink="http://www.w3.org/1999/xlink" version="1.1" x="0px" y="0px" width="100px" height="100px" viewBox="0 0 100 100" enable-background="new 0 0 100 100" xml:space="preserve">
<g id="Captions">
</g>
<g id="Your_Icon">
	<path d="M47.166,2.835C21.158,2.835,0,23.993,0,49.999c0,26.008,21.158,47.166,47.166,47.166c26.006,0,47.164-21.158,47.164-47.166   C94.33,23.993,73.172,2.835,47.166,2.835z M47.004,10.849c7.124,0,12.919,5.797,12.919,12.92s-5.795,12.92-12.919,12.92   s-12.92-5.797-12.92-12.92S39.88,10.849,47.004,10.849z M57.465,53.347c-0.22,0.678-0.947,1.049-1.624,0.828   s-1.048-0.947-0.828-1.625s0.947-1.047,1.625-0.828C57.314,51.942,57.686,52.669,57.465,53.347z M53.816,43.04   c-0.419,0.574-1.226,0.703-1.801,0.285c-0.576-0.42-0.705-1.227-0.286-1.803s1.225-0.703,1.801-0.285   C54.107,41.655,54.234,42.464,53.816,43.04z M51.241,49.919c0,2.293-1.864,4.158-4.157,4.158c-2.292,0-4.157-1.865-4.157-4.158   s1.865-4.158,4.157-4.158C49.377,45.761,51.241,47.626,51.241,49.919z M42.315,43.325c-0.577,0.418-1.383,0.289-1.802-0.285   c-0.419-0.576-0.291-1.385,0.285-1.803s1.383-0.291,1.8,0.285C43.018,42.099,42.891,42.905,42.315,43.325z M38.488,54.175   c-0.677,0.219-1.404-0.15-1.624-0.828c-0.221-0.678,0.15-1.404,0.828-1.625c0.677-0.221,1.404,0.15,1.624,0.828   S39.166,53.954,38.488,54.175z M9.623,42.114c0-7.125,5.795-12.92,12.918-12.92c7.125,0,12.922,5.795,12.922,12.92   c0,7.123-5.797,12.92-12.922,12.92C15.418,55.034,9.623,49.237,9.623,42.114z M31.555,84.003c-7.125,0-12.92-5.797-12.92-12.922   c0-7.123,5.795-12.918,12.92-12.918c7.123,0,12.919,5.795,12.919,12.918C44.474,78.206,38.678,84.003,31.555,84.003z    M47.165,60.831c-0.712,0-1.29-0.578-1.29-1.289c0-0.713,0.578-1.291,1.29-1.291s1.289,0.578,1.289,1.291   C48.454,60.253,47.877,60.831,47.165,60.831z M62.454,84.003c-7.125,0-12.921-5.797-12.921-12.922   c0-7.123,5.796-12.918,12.921-12.918c7.123,0,12.919,5.795,12.919,12.918C75.373,78.206,69.577,84.003,62.454,84.003z    M72.109,54.714c-7.123,0-12.919-5.797-12.919-12.922c0-7.123,5.796-12.918,12.919-12.918s12.919,5.795,12.919,12.918   C85.028,48.917,79.232,54.714,72.109,54.714z"/>
	<path d="M87.703,78.413c-1.041,1.48-2.162,2.902-3.355,4.26c0.561,0.582,1.18,1.148,1.867,1.682   c5.828,4.539,10.263,4.686,10.263,4.686L100,81.917c0,0-6.119-0.324-11.055-2.756C88.507,78.944,88.094,78.69,87.703,78.413z"/>
	<path d="M62.454,60.521c-5.824,0-10.563,4.738-10.563,10.561c0,3.363,1.581,6.363,4.038,8.299   c6.748-2.012,12.519-6.281,16.439-11.934C70.884,63.409,67,60.521,62.454,60.521z"/>
	<path d="M31.555,60.521c-4.436,0-8.24,2.75-9.802,6.635c3.878,5.732,9.647,10.082,16.41,12.156c2.407-1.938,3.952-4.906,3.952-8.23   C42.115,65.259,37.377,60.521,31.555,60.521z"/>
	<path d="M33.104,42.114c0-5.777-4.664-10.484-10.427-10.559c-3.872,5.133-6.169,11.52-6.169,18.445c0,0.264,0.013,0.525,0.02,0.787   c1.708,1.189,3.78,1.887,6.014,1.887C28.366,52.675,33.104,47.938,33.104,42.114z"/>
	<path d="M61.549,41.792c0,5.824,4.737,10.563,10.561,10.563c2.097,0,4.051-0.617,5.695-1.676c0.005-0.227,0.018-0.451,0.018-0.678   c0-7.063-2.394-13.561-6.404-18.744C65.916,31.614,61.549,36.202,61.549,41.792z"/>
	<path d="M47.004,34.331c5.823,0,10.561-4.738,10.561-10.563c0-0.947-0.127-1.863-0.361-2.736c-3.146-1.09-6.521-1.689-10.038-1.689   c-3.649,0-7.148,0.641-10.395,1.811c-0.214,0.836-0.328,1.713-0.328,2.615C36.442,29.593,41.181,34.331,47.004,34.331z"/>
</g>
</svg>